<svg xmlns="http://www.w3.org/2000/svg" viewBox="0 0 32 32" fill="none">
	<rect width="32" height="32" rx="8" fill="#faf6f1" />
	<rect width="32" height="32" rx="8" fill="url(#g)" opacity="0.35" />
	<path
		fill="#9f1239"
		d="M22 8.5v11.2c0 2.4-1.9 4.3-4.3 4.3a4.3 4.3 0 0 1-4.2-5.2c.4-2 2.1-3.4 4.2-3.4.5 0 1 .1 1.5.3V11l-6 1.8v7.4c0 2.4-1.9 4.3-4.3 4.3S4.5 22.5 4.5 20.1c0-2 1.3-3.6 3.2-4.1.5-.1 1-.2 1.5-.2.5 0 1 .1 1.4.3v-2.2c-.4-.1-.9-.2-1.4-.2-1 0-2 .3-2.8.8L6 9.9A8.3 8.3 0 0 1 9.2 9c1.2 0 2.3.3 3.3.8l.5.3 6.8-2.1.5-.3c.6-.3 1.3-.5 2-.6h.2V8.5Z"
	/>
	<defs>
		<linearGradient id="g" x1="4" y1="4" x2="28" y2="28" gradientUnits="userSpaceOnUse">
			<stop stop-color="#fda4af" />
			<stop offset="1" stop-color="#9f1239" stop-opacity="0.4" />
		</linearGradient>
	</defs>
</svg>
